<?xml version="1.0" encoding="UTF-8" standalone="no"?>
<svg width="44px" height="44px" viewBox="0 0 44 44" version="1.1" xmlns="http://www.w3.org/2000/svg" xmlns:xlink="http://www.w3.org/1999/xlink">
    <!-- Generator: Sketch 46.2 (44496) - http://www.bohemiancoding.com/sketch -->
    <title>Shape</title>
    <desc>Created with Sketch.</desc>
    <defs></defs>
    <g id="Page-1" stroke="none" stroke-width="1" fill="none" fill-rule="evenodd">
        <path d="M42,0 L36,0 L36,2 C36,3.1 35.1,4 34,4 C32.9,4 32,3.1 32,2 L32,0 L12,0 L12,2 C12,3.1 11.1,4 10,4 C8.9,4 8,3.1 8,2 L8,0 L2,0 C0.9,0 0,0.9 0,2 L0,42 C0,43.1 0.9,44 2,44 L42,44 C43.1,44 44,43.1 44,42 L44,2 C44,0.9 43.1,0 42,0 Z M34,35 L10,35 C8.9,35 8,34.1 8,33 C8,31.9 8.9,31 10,31 L34,31 C35.1,31 36,31.9 36,33 C36,34.1 35.1,35 34,35 Z M34,26 L10,26 C8.9,26 8,25.1 8,24 C8,22.9 8.9,22 10,22 L34,22 C35.1,22 36,22.9 36,24 C36,25.1 35.1,26 34,26 Z M34,17 L10,17 C8.9,17 8,16.1 8,15 C8,13.9 8.9,13 10,13 L34,13 C35.1,13 36,13.9 36,15 C36,16.1 35.1,17 34,17 Z" id="Shape" fill="#333439" fill-rule="nonzero"></path>
    </g>
</svg>