<?xml version="1.0" encoding="UTF-8" standalone="no"?>
<svg width="48px" height="32px" viewBox="0 0 48 32" version="1.1" xmlns="http://www.w3.org/2000/svg" xmlns:xlink="http://www.w3.org/1999/xlink">
    <!-- Generator: Sketch 46.2 (44496) - http://www.bohemiancoding.com/sketch -->
    <title>Group</title>
    <desc>Created with Sketch.</desc>
    <defs></defs>
    <g id="Page-1" stroke="none" stroke-width="1" fill="none" fill-rule="evenodd">
        <g id="Group" fill-rule="nonzero" fill="#333439">
            <g id="cloud">
                <path d="M48,21.5 C48,27.13 43.565,31.712 38,31.975 L38,32 L8,32 L8,31.975 C3.54,31.715 0,28.026 0,23.5 C0,18.974 3.54,15.285 8,15.025 L8,15 L8.069,15 C8.028,14.672 8,14.34 8,14 C8,9.582 11.582,6 16,6 C17.317,6 18.556,6.324 19.651,6.888 C21.125,2.871 24.973,0 29.5,0 C35.299,0 40,4.701 40,10.5 C40,10.771 39.979,11.036 39.959,11.302 C44.57,12.41 48,16.55 48,21.5 Z M23.9999964,9 L17.186748,18.6481379 C16.8001972,19.1829655 17.0335277,19.6206897 17.7039638,19.6206897 L22.4444603,19.6206897 L22.4444603,28.4827586 C22.4444603,29.3202759 23.1413405,30 23.9999964,30 C24.8586524,30 25.5555326,29.3202759 25.5555326,28.4827586 L25.5555326,19.6206897 L30.2952513,19.6206897 C30.9656874,19.6206897 31.1990178,19.1829655 30.8124671,18.6481379 L23.9999964,9 Z" id="Combined-Shape"></path>
            </g>
        </g>
    </g>
</svg>